<svg width="40" height="40" viewBox="0 0 40 40" fill="none" xmlns="http://www.w3.org/2000/svg">
<g clip-path="url(#clip0_28_246)">
<path d="M37.5 0.15625H2.5C1.87865 0.157077 1.28299 0.404272 0.843632 0.843632C0.404272 1.28299 0.157077 1.87865 0.15625 2.5V37.5C0.157077 38.1213 0.404272 38.717 0.843632 39.1564C1.28299 39.5957 1.87865 39.8429 2.5 39.8438H37.5C38.1213 39.8429 38.717 39.5957 39.1564 39.1564C39.5957 38.717 39.8429 38.1213 39.8438 37.5V2.5C39.8429 1.87865 39.5957 1.28299 39.1564 0.843632C38.717 0.404272 38.1213 0.157077 37.5 0.15625ZM22.3438 36.875C22.3438 36.9993 22.2944 37.1185 22.2065 37.2065C22.1185 37.2944 21.9993 37.3438 21.875 37.3438H3.125C3.00068 37.3438 2.88145 37.2944 2.79354 37.2065C2.70564 37.1185 2.65625 36.9993 2.65625 36.875V3.125C2.65625 3.00068 2.70564 2.88145 2.79354 2.79354C2.88145 2.70564 3.00068 2.65625 3.125 2.65625H21.875C21.9993 2.65625 22.1185 2.70564 22.2065 2.79354C22.2944 2.88145 22.3438 3.00068 22.3438 3.125V36.875ZM37.3438 36.875C37.3438 36.9993 37.2944 37.1185 37.2065 37.2065C37.1185 37.2944 36.9993 37.3438 36.875 37.3438H24.375C24.2507 37.3438 24.1315 37.2944 24.0435 37.2065C23.9556 37.1185 23.9062 36.9993 23.9062 36.875V23.125C23.9062 23.0007 23.9556 22.8815 24.0435 22.7935C24.1315 22.7056 24.2507 22.6562 24.375 22.6562H36.875C36.9993 22.6562 37.1185 22.7056 37.2065 22.7935C37.2944 22.8815 37.3438 23.0007 37.3438 23.125V36.875ZM37.3438 20.625C37.3438 20.7493 37.2944 20.8685 37.2065 20.9565C37.1185 21.0444 36.9993 21.0938 36.875 21.0938H24.375C24.2507 21.0938 24.1315 21.0444 24.0435 20.9565C23.9556 20.8685 23.9062 20.7493 23.9062 20.625V3.125C23.9062 3.00068 23.9556 2.88145 24.0435 2.79354C24.1315 2.70564 24.2507 2.65625 24.375 2.65625H36.875C36.9993 2.65625 37.1185 2.70564 37.2065 2.79354C37.2944 2.88145 37.3438 3.00068 37.3438 3.125V20.625Z" fill="white"/>
<path d="M24.8438 36.4062H36.4062V23.5938H24.8438V36.4062ZM33.75 27.6562C33.8427 27.6562 33.9333 27.6837 34.0104 27.7352C34.0875 27.7868 34.1476 27.86 34.1831 27.9456C34.2185 28.0313 34.2278 28.1255 34.2097 28.2164C34.1917 28.3074 34.147 28.3909 34.0815 28.4565C34.0159 28.522 33.9324 28.5667 33.8414 28.5847C33.7505 28.6028 33.6563 28.5935 33.5706 28.5581C33.485 28.5226 33.4118 28.4625 33.3602 28.3854C33.3087 28.3083 33.2812 28.2177 33.2812 28.125C33.2812 28.0007 33.3306 27.8815 33.4185 27.7935C33.5065 27.7056 33.6257 27.6562 33.75 27.6562ZM33.75 33.9062C33.8427 33.9062 33.9333 33.9337 34.0104 33.9852C34.0875 34.0368 34.1476 34.11 34.1831 34.1956C34.2185 34.2813 34.2278 34.3755 34.2097 34.4664C34.1917 34.5574 34.147 34.6409 34.0815 34.7065C34.0159 34.772 33.9324 34.8167 33.8414 34.8347C33.7505 34.8528 33.6563 34.8435 33.5706 34.8081C33.485 34.7726 33.4118 34.7125 33.3602 34.6354C33.3087 34.5583 33.2812 34.4677 33.2812 34.375C33.2812 34.2507 33.3306 34.1315 33.4185 34.0435C33.5065 33.9556 33.6257 33.9062 33.75 33.9062ZM30.625 25.1562C30.7177 25.1562 30.8083 25.1837 30.8854 25.2352C30.9625 25.2868 31.0226 25.36 31.0581 25.4456C31.0935 25.5313 31.1028 25.6255 31.0847 25.7164C31.0667 25.8074 31.022 25.8909 30.9565 25.9565C30.8909 26.022 30.8074 26.0667 30.7164 26.0847C30.6255 26.1028 30.5313 26.0935 30.4456 26.0581C30.36 26.0226 30.2868 25.9625 30.2352 25.8854C30.1837 25.8083 30.1562 25.7177 30.1562 25.625C30.1562 25.5007 30.2056 25.3815 30.2935 25.2935C30.3815 25.2056 30.5007 25.1562 30.625 25.1562ZM30.625 30.7812C30.7177 30.7812 30.8083 30.8087 30.8854 30.8602C30.9625 30.9118 31.0226 30.985 31.0581 31.0706C31.0935 31.1563 31.1028 31.2505 31.0847 31.3414C31.0667 31.4324 31.022 31.5159 30.9565 31.5815C30.8909 31.647 30.8074 31.6917 30.7164 31.7097C30.6255 31.7278 30.5313 31.7185 30.4456 31.6831C30.36 31.6476 30.2868 31.5875 30.2352 31.5104C30.1837 31.4333 30.1562 31.3427 30.1562 31.25C30.1562 31.1257 30.2056 31.0065 30.2935 30.9185C30.3815 30.8306 30.5007 30.7812 30.625 30.7812ZM27.5 27.6562C27.5927 27.6562 27.6833 27.6837 27.7604 27.7352C27.8375 27.7868 27.8976 27.86 27.9331 27.9456C27.9685 28.0313 27.9778 28.1255 27.9597 28.2164C27.9417 28.3074 27.897 28.3909 27.8315 28.4565C27.7659 28.522 27.6824 28.5667 27.5914 28.5847C27.5005 28.6028 27.4063 28.5935 27.3206 28.5581C27.235 28.5226 27.1618 28.4625 27.1102 28.3854C27.0587 28.3083 27.0312 28.2177 27.0312 28.125C27.0312 28.0007 27.0806 27.8815 27.1685 27.7935C27.2565 27.7056 27.3757 27.6562 27.5 27.6562ZM27.5 33.9062C27.5927 33.9062 27.6833 33.9337 27.7604 33.9852C27.8375 34.0368 27.8976 34.11 27.9331 34.1956C27.9685 34.2813 27.9778 34.3755 27.9597 34.4664C27.9417 34.5574 27.897 34.6409 27.8315 34.7065C27.7659 34.772 27.6824 34.8167 27.5914 34.8347C27.5005 34.8528 27.4063 34.8435 27.3206 34.8081C27.235 34.7726 27.1618 34.7125 27.1102 34.6354C27.0587 34.5583 27.0312 34.4677 27.0312 34.375C27.0312 34.2507 27.0806 34.1315 27.1685 34.0435C27.2565 33.9556 27.3757 33.9062 27.5 33.9062Z" fill="white"/>
<path d="M32.1875 17.6562C32.4775 17.6559 32.7555 17.5406 32.9605 17.3355C33.1656 17.1305 33.2809 16.8525 33.2812 16.5625V7.1875C33.2812 6.89742 33.166 6.61922 32.9609 6.4141C32.7558 6.20898 32.4776 6.09375 32.1875 6.09375C31.8974 6.09375 31.6192 6.20898 31.4141 6.4141C31.209 6.61922 31.0938 6.89742 31.0938 7.1875V16.5625C31.0941 16.8525 31.2094 17.1305 31.4145 17.3355C31.6195 17.5406 31.8975 17.6559 32.1875 17.6562Z" fill="white"/>
<path d="M29.0625 17.6562C29.3525 17.6559 29.6305 17.5406 29.8355 17.3355C30.0406 17.1305 30.1559 16.8525 30.1562 16.5625V7.1875C30.1562 6.89742 30.041 6.61922 29.8359 6.4141C29.6308 6.20898 29.3526 6.09375 29.0625 6.09375C28.7724 6.09375 28.4942 6.20898 28.2891 6.4141C28.084 6.61922 27.9688 6.89742 27.9688 7.1875V16.5625C27.9691 16.8525 28.0844 17.1305 28.2895 17.3355C28.4945 17.5406 28.7725 17.6559 29.0625 17.6562Z" fill="white"/>
<path d="M24.8438 20.1562H36.4062V3.59375H24.8438V20.1562ZM27.0312 7.1875C27.0295 6.76878 27.1578 6.35985 27.3983 6.01712C27.6389 5.6744 27.9799 5.41479 28.3742 5.27411C28.7686 5.13344 29.197 5.11864 29.6001 5.23175C30.0033 5.34487 30.3614 5.58032 30.625 5.90563C30.8886 5.58032 31.2467 5.34487 31.6499 5.23175C32.053 5.11864 32.4814 5.13344 32.8758 5.27411C33.2701 5.41479 33.6111 5.6744 33.8517 6.01712C34.0922 6.35985 34.2205 6.76878 34.2188 7.1875V16.5625C34.2205 16.9812 34.0922 17.3902 33.8517 17.7329C33.6111 18.0756 33.2701 18.3352 32.8758 18.4759C32.4814 18.6166 32.053 18.6314 31.6499 18.5182C31.2467 18.4051 30.8886 18.1697 30.625 17.8444C30.3614 18.1697 30.0033 18.4051 29.6001 18.5182C29.197 18.6314 28.7686 18.6166 28.3742 18.4759C27.9799 18.3352 27.6389 18.0756 27.3983 17.7329C27.1578 17.3902 27.0295 16.9812 27.0312 16.5625V7.1875Z" fill="white"/>
<path d="M5.98254 25.8924C6.03583 26.4251 6.16071 26.9481 6.35379 27.4474L8.16629 26.5399V25.2449L6.35379 24.3374C6.16084 24.8367 6.03597 25.3598 5.98254 25.8924Z" fill="white"/>
<path d="M9.1062 26.5707L9.1762 26.6144C9.6237 26.8951 10.0512 27.2013 10.4725 27.5194L10.8256 25.5194C10.2562 25.438 9.68131 25.4014 9.1062 25.4101V26.5707Z" fill="white"/>
<path d="M15.9769 27.6875L13.8019 30.7938C14.2273 31.3367 14.6211 31.9037 14.9813 32.4919L18.5 30.4606C17.8257 29.3973 16.972 28.459 15.9769 27.6875Z" fill="white"/>
<path d="M8.16745 8.46056V7.16556L6.35495 6.25806C6.16119 6.75707 6.03548 7.27988 5.9812 7.81243C6.03479 8.34505 6.15965 8.86805 6.35245 9.36743L8.16745 8.46056Z" fill="white"/>
<path d="M11.75 25.6875L11.3087 28.1913C11.978 28.7622 12.6047 29.3814 13.1837 30.0438L15.2137 27.1444C14.1526 26.4611 12.9805 25.9681 11.75 25.6875Z" fill="white"/>
<path d="M18.0001 15.5543C18.395 15.3255 18.7012 14.9701 18.8693 14.5458C19.0373 14.1214 19.0574 13.6528 18.9263 13.2156L15.5132 15.1875C15.8262 15.5191 16.2418 15.7357 16.693 15.8023C17.1442 15.8689 17.6046 15.7815 18.0001 15.5543Z" fill="white"/>
<path d="M14.9801 14.4118L18.5001 12.3818C17.8264 11.3182 16.9733 10.3795 15.9788 9.60742L13.8038 12.7137C14.2282 13.2567 14.6209 13.8237 14.9801 14.4118Z" fill="white"/>
<path d="M9.10498 8.49125L9.17561 8.53563C9.62248 8.81563 10.0506 9.12188 10.4719 9.44L10.8244 7.44C10.2549 7.35887 9.68008 7.3223 9.10498 7.33063V8.49375V8.49125Z" fill="white"/>
<path d="M13.1819 11.9637L15.2119 9.06247C14.1502 8.379 12.9774 7.88598 11.7463 7.60559L11.3051 10.1093C11.9749 10.681 12.6022 11.3008 13.1819 11.9637Z" fill="white"/>
<path d="M16.8325 21.25V22.5457L18.645 23.4532C18.8382 22.9539 18.9633 22.4308 19.0169 21.8982C18.9634 21.3653 18.8385 20.8421 18.6456 20.3425L16.8325 21.25Z" fill="white"/>
<path d="M15.895 21.22L15.8244 21.1762C15.3775 20.8962 14.9494 20.5894 14.5282 20.2712L14.1757 22.2744C14.7451 22.3556 15.3199 22.392 15.895 22.3831V21.22Z" fill="white"/>
<path d="M11.8181 17.75L9.78809 20.6487C10.8496 21.3327 12.0224 21.8259 13.2537 22.1062L13.695 19.6025C13.0252 19.0314 12.3979 18.4123 11.8181 17.75Z" fill="white"/>
<path d="M3.59375 36.4062H21.4062V3.59375H3.59375V36.4062ZM18.4719 34.4456C18.1342 34.6406 17.7615 34.7671 17.3749 34.818C16.9883 34.8689 16.5955 34.8431 16.2189 34.7422C15.8423 34.6413 15.4893 34.4672 15.18 34.2298C14.8707 33.9924 14.6112 33.6964 14.4163 33.3587C13.0161 30.9385 11.0467 28.8963 8.67875 27.4094L8.61188 27.3669L6.34687 28.5C6.24303 28.552 6.1236 28.5635 6.01171 28.5325C5.89982 28.5014 5.80344 28.4299 5.74125 28.3319C5.35174 27.5853 5.11504 26.7685 5.045 25.9294V25.8581C5.11476 25.0192 5.35125 24.2026 5.74063 23.4562C5.80272 23.3581 5.89906 23.2865 6.01095 23.2553C6.12285 23.2241 6.24234 23.2356 6.34625 23.2875L8.73812 24.4837L8.82563 24.48C10.9842 24.3898 13.1262 24.8934 15.0185 25.9358C16.9108 26.9783 18.4809 28.5198 19.5581 30.3925C19.9511 31.0741 20.0575 31.8839 19.8538 32.6439C19.6501 33.4038 19.1531 34.0519 18.4719 34.4456ZM19.9562 21.9375C19.8865 22.7765 19.6498 23.5931 19.26 24.3394C19.198 24.4377 19.1017 24.5094 18.9898 24.5407C18.8779 24.572 18.7584 24.5606 18.6544 24.5088L16.2619 23.3119L16.175 23.3156C14.0162 23.4056 11.8741 22.9016 9.98173 21.8587C8.0894 20.8158 6.51937 19.2738 5.4425 17.4006C5.05503 16.7191 4.95284 15.912 5.15825 15.1555C5.36365 14.3989 5.85996 13.7543 6.53888 13.3623C7.21779 12.9703 8.02419 12.8628 8.7821 13.0632C9.54001 13.2635 10.1879 13.7556 10.5844 14.4319C11.9843 16.8525 13.9537 18.8949 16.3219 20.3819L16.3888 20.4238L18.6538 19.2919C18.7576 19.2398 18.877 19.2281 18.989 19.2592C19.1009 19.2903 19.1973 19.3618 19.2594 19.46C19.6492 20.2065 19.8861 21.0233 19.9562 21.8625V21.9375ZM5.04375 7.7775C5.11325 6.93824 5.34998 6.12137 5.74 5.375C5.80219 5.27694 5.89853 5.20542 6.01039 5.17425C6.12224 5.14308 6.24168 5.15448 6.34562 5.20625L8.73812 6.4025L8.825 6.39875C10.9837 6.3087 13.1257 6.81242 15.0181 7.85511C16.9104 8.89781 18.4805 10.4395 19.5575 12.3125C19.945 12.994 20.0472 13.8011 19.8418 14.5577C19.6364 15.3142 19.14 15.9588 18.4611 16.3508C17.7822 16.7428 16.9758 16.8503 16.2179 16.65C15.46 16.4496 14.8121 15.9576 14.4156 15.2812C13.0157 12.8606 11.0463 10.8182 8.67813 9.33125L8.61125 9.28875L6.34625 10.4212C6.24241 10.4732 6.12297 10.4848 6.01108 10.4537C5.8992 10.4227 5.80282 10.3512 5.74063 10.2531C5.35066 9.50602 5.11373 8.68859 5.04375 7.84875V7.7775Z" fill="white"/>
<path d="M10.02 15.2993L6.50317 17.3299C7.17686 18.3936 8.02992 19.3323 9.02442 20.1043L11.1994 16.9974C10.7739 16.4546 10.3801 15.8876 10.02 15.2993Z" fill="white"/>
<path d="M7.00002 14.1575C6.60516 14.3863 6.29896 14.7415 6.13089 15.1657C5.96282 15.59 5.9427 16.0585 6.07377 16.4956L9.48877 14.5244C9.17564 14.1922 8.75968 13.9754 8.30809 13.9088C7.85651 13.8422 7.39566 13.9298 7.00002 14.1575Z" fill="white"/>
<path d="M15.5144 33.2663C15.8271 33.5989 16.2429 33.8162 16.6946 33.8828C17.1462 33.9493 17.6071 33.8614 18.0024 33.6331C18.3978 33.4049 18.7044 33.0497 18.8725 32.6253C19.0407 32.2009 19.0605 31.7321 18.9288 31.295L15.5144 33.2663Z" fill="white"/>
</g>
<defs>
<clipPath id="clip0_28_246">
<rect width="40" height="40" fill="white"/>
</clipPath>
</defs>
</svg>
