<svg width="40" height="40" viewBox="0 0 40 40" fill="none" xmlns="http://www.w3.org/2000/svg">
<g clip-path="url(#clip0_29_289)">
<path d="M19.9997 8.2699C21.9432 8.2699 23.5187 6.6944 23.5187 4.75092C23.5187 2.80744 21.9432 1.23193 19.9997 1.23193C18.0562 1.23193 16.4807 2.80744 16.4807 4.75092C16.4807 6.6944 18.0562 8.2699 19.9997 8.2699Z" fill="white"/>
<path d="M25.711 6.0426C25.1195 8.6551 22.7888 10.6159 20.0001 10.6159C17.2113 10.6159 14.8806 8.6551 14.2891 6.0426C12.1914 6.51002 10.6161 8.37901 10.6161 10.6159V15.3079C10.6161 16.6012 11.6688 17.6539 12.9621 17.6539C14.2554 17.6539 15.3081 16.6012 15.3081 15.3079V12.9619H24.6921V15.3079C24.6921 16.6012 25.7448 17.6539 27.0381 17.6539C28.3314 17.6539 29.3841 16.6012 29.3841 15.3079V10.6159C29.3841 8.37901 27.8087 6.51002 25.711 6.0426Z" fill="white"/>
<path d="M38.181 29.9002C36.4978 28.9284 34.3457 29.505 33.3739 31.1882C32.4022 32.8712 32.9788 35.0235 34.662 35.9951C36.3451 36.9669 38.5755 36.3902 39.5472 34.7072C40.519 33.024 39.864 30.8719 38.181 29.9002Z" fill="white"/>
<path d="M36.0342 21.8884L31.9709 19.5424C30.8508 18.8957 29.4129 19.281 28.7662 20.4011C28.1196 21.5212 28.5049 22.9592 29.625 23.6058L31.6567 24.7788L26.9647 32.9056L24.933 31.7326C23.8129 31.0859 22.3749 31.4713 21.7283 32.5913C21.0816 33.7114 21.4669 35.1494 22.587 35.796L26.6503 38.142C28.5876 39.2605 30.9939 38.8306 32.4474 37.2477C30.4807 35.4292 29.9479 32.4304 31.3423 30.0152C32.7366 27.5999 35.6001 26.562 38.1583 27.356C38.8025 25.3057 37.9715 23.0068 36.0342 21.8884Z" fill="white"/>
<path d="M6.62616 31.1882C5.65436 29.505 3.50225 28.9284 1.81905 29.9002C0.136005 30.872 -0.518995 33.0241 0.45288 34.7073C1.42452 36.3903 3.65499 36.967 5.33804 35.9952C7.02124 35.0234 7.59788 32.8713 6.62616 31.1882Z" fill="white"/>
<path d="M18.2718 32.5913C17.6252 31.4712 16.1872 31.086 15.0672 31.7326L13.0354 32.9055L8.3434 24.7787L10.3751 23.6058C11.4952 22.9591 11.8804 21.5211 11.2339 20.4011C10.5872 19.281 9.14918 18.8958 8.02918 19.5423L3.9659 21.8883C2.02856 23.0068 1.19762 25.3057 1.84184 27.356C4.40004 26.562 7.26356 27.6 8.65793 30.0152C10.0523 32.4304 9.5195 35.4292 7.55278 37.2477C9.00629 38.8306 11.4125 39.2605 13.3499 38.1421L17.4132 35.796C18.5332 35.1494 18.9185 33.7113 18.2718 32.5913Z" fill="white"/>
</g>
<defs>
<clipPath id="clip0_29_289">
<rect width="40" height="40" fill="white"/>
</clipPath>
</defs>
</svg>
