<svg width="40" height="40" viewBox="0 0 40 40" fill="none" xmlns="http://www.w3.org/2000/svg">
<g clip-path="url(#clip0_28_217)">
<path d="M12.9688 39.999C20.0233 39.999 25.8594 34.2027 25.8594 27.0303C25.8594 25.1084 25.4375 23.3036 24.6875 21.6632C22.625 22.5538 21.1719 24.6161 21.1719 27.0303C21.1719 31.51 17.5049 35.3115 12.9688 35.3115C8.44531 35.3115 4.76562 31.5537 4.76562 27.0303C4.76562 22.5068 8.44531 18.8271 12.9688 18.8271C13.3671 18.8271 13.7657 18.8506 14.1641 18.9208C15.1015 17.4209 16.2734 16.1084 17.6797 15.0303C16.2266 14.4678 14.6328 14.1396 12.9688 14.1396C5.84383 14.1396 0 19.9054 0 27.0303C0 34.1552 5.84383 39.999 12.9688 39.999Z" fill="white"/>
<path d="M26.1867 1.29335C24.4839 -0.409543 21.7292 -0.428996 20 1.23155C18.2732 -0.428996 15.5174 -0.409543 13.8134 1.29335C12.0899 3.01686 12.0899 5.81952 13.8134 7.54296L20 13.8077L26.1867 7.54296C27.9102 5.81944 27.9102 3.01679 26.1867 1.29335Z" fill="white"/>
<path d="M27.0312 35.3115C26.6329 35.3115 26.2343 35.2881 25.8359 35.2179C24.8985 36.7178 23.7266 38.0303 22.3203 39.1084C23.7734 39.6709 25.3672 39.999 27.0312 39.999C34.1562 39.999 40 34.1552 40 27.0303C40 19.9054 34.1562 14.1396 27.0312 14.1396C19.9551 14.1396 14.1406 19.8811 14.1406 27.0303C14.1406 28.9521 14.5625 30.835 15.3125 32.4755C17.375 31.5849 18.8281 29.4444 18.8281 27.0303C18.8281 22.5505 22.4951 18.8271 27.0312 18.8271C31.5547 18.8271 35.2344 22.5068 35.2344 27.0303C35.2344 31.5537 31.5547 35.3115 27.0312 35.3115Z" fill="white"/>
</g>
<defs>
<clipPath id="clip0_28_217">
<rect width="40" height="40" fill="white"/>
</clipPath>
</defs>
</svg>
